# xmcd
# 
# Track frame offsets:
#     150
#     14705
#     28095
#     38837
#     50230
#     72825
#     93900
#     108740
#     131645
#     151525
#     165607
#     178112
# 
# Disc length: 2586
# 
# Revision: 2
# Processed by: cddbd v1.5.2PL0 Copyright (c) Steve Scherf et al.
# Submitted via: fre:ac v1.0.31
# 
DISCID=a10a180c
DTITLE=Heartless Bastards - Stairs And Elevators
DYEAR=2005
DGENRE=Rock/Pop
TTITLE0=Gray
TTITLE1=Onions
TTITLE2=New Resolution
TTITLE3=My Maker
TTITLE4=Runnin
TTITLE5=Autonomy
TTITLE6=Pass and Fail
TTITLE7=The Will Song
TTITLE8=Swamp Song
TTITLE9=Done Got Old
TTITLE10=Piano Song
TTITLE11=Lazy
EXTD=
EXTT0=
EXTT1=
EXTT2=
EXTT3=
EXTT4=
EXTT5=
EXTT6=
EXTT7=
EXTT8=
EXTT9=
EXTT10=
EXTT11=
PLAYORDER=
